# xmcd
#
# Track frame offsets:
#	150
#	12759
#	27309
#	40457
#	52490
#	65840
#	78774
#	91930
#	106332
#	118645
#	131567
#	145259
#	157758
#	169348
#	182791
#	196595
#
# Disc length: 2782 seconds
#
# Revision: 1
# Processed by: cddbd v1.5.2PL0 Copyright (c) Steve Scherf et al.
# Submitted via: audiograbber 1.83.01
#
DISCID=d70adc10
DTITLE=Various Artist - Nothing But The Blues [2012]
DYEAR=2012
DGENRE=Blues
TTITLE0=Brownie McGhee - Be Good To Me
TTITLE1=Big Joe Williams - Break 'em On Down
TTITLE2=Brownie McGhee - Back Home Blues
TTITLE3=Sammy Price - Callin 'em Home
TTITLE4=Big Bill Broonzy - Big Bill Blues
TTITLE5=Brownie McGhee - Ain't No Tellin'
TTITLE6=Arthur Big Boy Crudup - Crudup's After Hours
TTITLE7=Arthur Big Boy Crudup - Chicago Blues
TTITLE8=Sonny Terry - Beer Garden Blues
TTITLE9=Brownie McGhee - Born For Bad Luck
TTITLE10=T-Bone Walker - Call It Stormy Monday
TTITLE11=Brownie McGhee - Barbecue Any Old Time
TTITLE12=Sonny Terry - Crow Jane Blues
TTITLE13=Lonnie Johnson - Backwater Blues
TTITLE14=Leadbelly - Alabama Bound
TTITLE15=Brownie McGhee - Back Door Stranger
EXTD=
EXTT0=
EXTT1=
EXTT2=
EXTT3=
EXTT4=
EXTT5=
EXTT6=
EXTT7=
EXTT8=
EXTT9=
EXTT10=
EXTT11=
EXTT12=
EXTT13=
EXTT14=
EXTT15=
PLAYORDER=
